<?xml version="1.0" encoding="utf-8"?>
<!-- Generator: Adobe Illustrator 24.0.0, SVG Export Plug-In . SVG Version: 6.00 Build 0)  -->
<svg version="1.1" id="Layer_1" xmlns="http://www.w3.org/2000/svg" xmlns:xlink="http://www.w3.org/1999/xlink" x="0px" y="0px"
	 viewBox="0 0 32 32" style="enable-background:new 0 0 32 32;" xml:space="preserve">
<style type="text/css">
	.st0{fill:#262222;}
</style>
<g>
	<path class="st0" d="M10.29,20.49c0.01,0.01,0.01,0.02,0.02,0.03C10.3,20.51,10.3,20.5,10.29,20.49z"/>
	<polygon class="st0" points="27.45,10.77 27.45,10.77 27.45,10.77 27.45,10.76 27.45,10.77 27.45,10.77 	"/>
	<polygon class="st0" points="27.45,10.77 27.45,10.77 27.45,10.77 	"/>
	<polygon class="st0" points="27.45,10.77 27.45,10.77 27.45,10.77 27.45,10.77 27.45,10.77 	"/>
	<path class="st0" d="M21.94,23.55c0.74-0.53,1.43-1.11,2.09-1.73c1.73-1.61,2.89-3.55,3.43-5.86c0.24-1.02,0.35-2.04,0.32-3.09
		c-0.02-0.63-0.12-1.25-0.22-1.87c-0.09-0.05-0.05-0.16-0.11-0.23c0,0,0,0,0,0c0,0,0,0,0,0c-0.01,0.04-0.04,0.07-0.08,0.03
		c-0.06-0.06-0.12-0.12-0.16-0.18c-0.5-0.74-1.12-1.39-1.78-1.99c-0.02-0.02-0.03-0.04-0.06-0.09c0.12,0.03,0.18,0.09,0.25,0.15
		c0.66,0.61,1.29,1.27,1.78,2.03c0.01,0.02,0.03,0.03,0.05,0.04c0,0,0.01,0,0.01,0c0-0.05,0-0.1,0-0.14
		c0.01-0.11-0.04-0.21-0.07-0.31c-0.26-0.91-0.52-1.83-1.03-2.65c-0.44-0.7-0.85-1.41-1.39-2.04c-1.1-1.29-2.43-2.27-3.97-2.96
		c-1.09-0.49-2.22-0.82-3.4-0.97c-1.15-0.14-2.3-0.12-3.44,0.07c-0.94,0.16-1.86,0.41-2.73,0.8c-1.2,0.54-2.35,1.16-3.24,2.17
		C7.9,5.04,7.58,5.33,7.3,5.64C6.57,6.45,6,7.35,5.53,8.33c-0.43,0.91-0.76,1.85-0.91,2.85c-0.07,0.45-0.16,0.91-0.18,1.36
		c-0.03,0.62-0.02,1.24,0.02,1.87c0.04,0.5,0.11,1,0.21,1.49c0.09,0.42,0.25,0.83,0.39,1.24c0.29,0.87,0.68,1.7,1.17,2.47
		c1.12,1.74,2.6,3.09,4.45,4.03c0.65,0.33,1.31,0.61,2.01,0.81c0.14,0.04,0.27,0.12,0.42,0.08c0.26-0.07,0.52-0.14,0.78-0.22
		c0.59-0.18,1.18-0.38,1.76-0.6c0.06-0.07,0.14-0.1,0.23-0.1c0.29-0.1,0.57-0.23,0.86-0.37c-0.04-0.02-0.06-0.03-0.08-0.03
		c-0.7-0.05-1.39-0.17-2.08-0.35c-0.71-0.18-1.38-0.44-2.03-0.77c-0.6-0.3-1.16-0.67-1.7-1.06c-0.19-0.08-0.35-0.21-0.52-0.32
		c-0.09-0.05-0.01-0.12-0.02-0.18c-0.01-0.01-0.01-0.02-0.02-0.03C9.99,20.2,9.7,19.91,9.42,19.6c-0.59-0.65-1.09-1.35-1.51-2.12
		c-0.28-0.51-0.48-1.05-0.61-1.61c-0.11-0.48-0.25-0.96-0.34-1.45c-0.15-0.81-0.07-1.63-0.02-2.45c0.03-0.57,0.19-1.11,0.37-1.65
		C7.77,9.05,8.44,7.9,9.39,6.91c0.75-0.79,1.62-1.43,2.61-1.91c0.98-0.48,2.02-0.77,3.1-0.91c1-0.13,1.99-0.06,2.96,0.15
		c0.72,0.16,1.4,0.41,2.07,0.74c0.89,0.44,1.67,1.01,2.37,1.7c0.64,0.62,1.15,1.33,1.58,2.11c0.72,1.27,1.07,2.64,1.16,4.09
		c0.06,0.89-0.07,1.77-0.28,2.64c-0.17,0.67-0.39,1.32-0.72,1.93c-0.4,0.73-0.87,1.41-1.43,2.03c-0.86,0.93-1.79,1.78-2.85,2.48
		c-1.01,0.67-2.07,1.24-3.18,1.72c-0.48,0.21-0.97,0.4-1.46,0.59c-0.43,0.16-0.86,0.3-1.3,0.44c-0.14,0.05-0.19,0.15-0.14,0.28
		c0.05,0.17,0.12,0.33,0.18,0.49c0.12,0.39,0.3,0.75,0.4,1.15c0.09,0.35,0.23,0.69,0.44,0.99c0.08,0.11,0.16,0.24,0.32,0.22
		c0.46-0.06,0.91-0.12,1.36-0.18c0.62-0.09,1.23-0.18,1.85-0.27c0.48-0.07,0.96-0.15,1.44-0.21c0.2-0.03,0.41-0.05,0.61-0.07
		c-0.66,0.31-1.32,0.57-1.99,0.81c-0.71,0.26-1.42,0.5-2.13,0.72c-0.21,0.07-0.42,0.11-0.6,0.26c-0.19,0.16-0.23,0.31-0.14,0.55
		c0.13,0.35,0.28,0.68,0.38,1.04c0.11,0.37,0.31,0.51,0.71,0.51c0.25,0,0.49-0.02,0.74-0.02c2.04,0.04,4.08,0.02,6.12,0.03
		c0.19,0,0.36-0.07,0.5-0.19c0.43-0.35,0.73-0.82,1.08-1.25c0.08-0.1,0.15-0.21,0.08-0.34c-0.07-0.13-0.18-0.18-0.32-0.19
		c-0.8-0.07-1.6-0.16-2.41-0.17c-0.04,0-0.09,0.02-0.12-0.04c0.01-0.02,0.01-0.04,0.03-0.05c0.68-0.28,1.36-0.57,2.03-0.88
		c0.36-0.17,0.74-0.32,1.07-0.55c0.23-0.16,0.37-0.37,0.29-0.68c-0.15-0.57-0.28-1.14-0.43-1.71c-0.04-0.14-0.11-0.28-0.3-0.29
		c-0.31-0.02-0.63-0.04-0.94-0.03c-1.42,0.02-2.84,0.1-4.25,0.32c-0.06,0.01-0.13,0.04-0.21-0.04c0.12-0.01,0.18-0.09,0.26-0.13
		C20.61,24.41,21.3,24.01,21.94,23.55z M8.92,19.65c-0.2-0.03-1.24-0.83-1.34-1.05C8.02,18.95,8.46,19.29,8.92,19.65z"/>
	<path class="st0" d="M17.77,20.02c0.13-0.01,0.21-0.08,0.24-0.21c0.06-0.25,0.12-0.5,0.17-0.75c0.16-0.76,0.32-1.52,0.48-2.28
		c0.13-0.59,0.26-1.17,0.39-1.76c0.11-0.5,0.22-0.99,0.33-1.49c0.09-0.41,0.17-0.82,0.27-1.28c0.04-0.1-0.12-0.17-0.15-0.28
		c-0.08-0.27-0.24-0.33-0.48-0.18c-0.24,0.16-0.48,0.32-0.72,0.48c-0.56,0.37-1.12,0.75-1.69,1.12c-0.25,0.17-0.43,0.12-0.5-0.13
		c-0.06-0.22-0.12-0.43-0.19-0.65c-0.27-0.9-0.54-1.8-0.82-2.7C15.07,9.78,15,9.66,14.82,9.68c-0.17,0.02-0.23,0.13-0.26,0.28
		c-0.06,0.3-0.12,0.59-0.17,0.89c-0.19,1-0.38,2-0.58,2.99c-0.19,0.99-0.37,1.97-0.57,2.96c-0.05,0.27,0.13,0.44,0.25,0.63
		c0.04,0.07,0.16,0.07,0.26,0.03c0.52-0.23,1.05-0.47,1.58-0.69c0.38-0.16,0.76-0.32,1.14-0.48c0.15-0.06,0.23,0,0.26,0.14
		c0.12,0.61,0.23,1.22,0.37,1.83c0.13,0.53,0.15,1.09,0.42,1.59C17.58,19.95,17.64,20.03,17.77,20.02z"/>
	<path class="st0" d="M10.31,20.52c0.01,0.06-0.07,0.13,0.02,0.18c0.18,0.1,0.33,0.24,0.52,0.32
		C10.68,20.84,10.45,20.73,10.31,20.52z"/>
	<path class="st0" d="M15.89,23.59c-0.07,0.04-0.16,0.05-0.23,0.1C15.74,23.68,15.83,23.68,15.89,23.59z"/>
	<path class="st0" d="M15.65,23.7c0.07-0.05,0.16-0.06,0.23-0.1C15.79,23.6,15.71,23.62,15.65,23.7z"/>
	<polygon class="st0" points="27.45,10.77 27.45,10.77 27.45,10.77 	"/>
	<polygon class="st0" points="27.45,10.77 27.45,10.77 27.45,10.77 27.45,10.77 	"/>
	<polygon class="st0" points="27.45,10.77 27.45,10.77 27.45,10.77 27.45,10.77 	"/>
	<polygon class="st0" points="27.45,10.77 27.45,10.77 27.45,10.77 	"/>
	<polygon class="st0" points="27.45,10.77 27.45,10.77 27.45,10.77 	"/>
	<polygon class="st0" points="27.45,10.77 27.45,10.77 27.45,10.77 27.45,10.77 	"/>
	<polygon class="st0" points="27.57,10.99 27.57,10.99 27.45,10.51 27.34,10.5 27.53,11.07 	"/>
</g>
</svg>
